<svg width="15" height="17" viewBox="0 0 15 17" fill="none" xmlns="http://www.w3.org/2000/svg">
<path fill-rule="evenodd" clip-rule="evenodd" d="M5.03888 3.41462H10.5498C10.4533 1.97687 9.25652 0.840522 7.79432 0.840522C6.33212 0.840522 5.13533 1.97687 5.03888 3.41462ZM11.3918 3.41462H12.5973C13.9236 3.41462 14.9988 4.48981 14.9988 5.81611V14.5983C14.9988 15.9246 13.9236 16.9998 12.5973 16.9998H2.99134C1.66503 16.9998 0.589844 15.9246 0.589844 14.5983V5.81611C0.589844 4.48981 1.66503 3.41462 2.99134 3.41462H4.19688C4.29449 1.51236 5.86779 0 7.79432 0C9.72085 0 11.2942 1.51236 11.3918 3.41462ZM2.99134 4.49529H12.5973C13.3268 4.49529 13.9181 5.08664 13.9181 5.81611V14.5983C13.9181 15.3278 13.3268 15.9191 12.5973 15.9191H2.99134C2.26187 15.9191 1.67051 15.3278 1.67051 14.5983V5.81611C1.67051 5.08664 2.26187 4.49529 2.99134 4.49529Z" fill="#EDEDED"/>
</svg>
