<svg width="12" height="11" viewBox="0 0 12 11" fill="none" xmlns="http://www.w3.org/2000/svg">
<path d="M11.0307 1.16645C10.4024 0.538081 9.57048 0.194644 8.68263 0.194644C7.79478 0.194644 6.96035 0.540625 6.33199 1.16899L6.00382 1.49716L5.67055 1.1639C5.04219 0.535538 4.20522 0.187012 3.31737 0.187012C2.43206 0.187012 1.59764 0.532993 0.971816 1.15881C0.343452 1.78718 -0.00253005 2.6216 1.39301e-05 3.50945C1.39301e-05 4.39731 0.34854 5.22919 0.976904 5.85755L5.75451 10.6352C5.82065 10.7013 5.90969 10.7369 5.99618 10.7369C6.08268 10.7369 6.17172 10.7038 6.23786 10.6377L11.0256 5.86773C11.654 5.23936 12 4.40494 12 3.51709C12.0025 2.62924 11.6591 1.79481 11.0307 1.16645ZM10.5423 5.38183L5.99618 9.91012L1.46026 5.3742C0.96164 4.87557 0.68689 4.21414 0.68689 3.50945C0.68689 2.80477 0.959096 2.14334 1.45772 1.64726C1.95379 1.15118 2.61523 0.876431 3.31737 0.876431C4.02205 0.876431 4.68603 1.15118 5.18465 1.6498L5.75959 2.22474C5.89442 2.35957 6.11066 2.35957 6.24549 2.22474L6.81535 1.65489C7.31397 1.15627 7.97795 0.881519 8.68009 0.881519C9.38223 0.881519 10.0437 1.15627 10.5423 1.65235C11.0409 2.15097 11.3131 2.8124 11.3131 3.51709C11.3157 4.22177 11.0409 4.88321 10.5423 5.38183Z" fill="#252A37"/>
</svg>
