<svg width="104" height="32" viewBox="0 0 104 32" fill="none" xmlns="http://www.w3.org/2000/svg">
<path d="M28.73 25.249C30.1402 25.5513 31.3541 24.3241 31.015 22.919C30.8543 22.2076 30.2831 21.6562 29.569 21.4962C28.1587 21.1938 26.9448 22.421 27.284 23.8261C27.4447 24.5376 28.0338 25.1067 28.73 25.249Z" fill="#252A37"/>
<path d="M29.1575 8.52995C28.1399 8.52995 27.3009 9.33032 27.2295 10.3263L27.2117 12.3361C27.1581 12.9942 26.6226 13.5278 25.9442 13.5278H25.9264H25.6407H25.6229C24.9088 13.5278 24.3376 12.9586 24.3376 12.2472V6.91144C24.3376 6.91144 24.3376 6.89366 24.3554 6.89366H29.1575C30.2285 6.89366 31.1032 6.02215 31.1032 4.955C31.1032 3.88785 30.2285 3.01635 29.1575 3.01635H22.4275C21.3564 3.01635 20.4817 3.88785 20.4817 4.955C20.4817 4.955 20.4817 4.955 20.4817 4.97279V15.0218C20.4817 15.7332 19.8926 16.3201 19.1786 16.3201H18.8929C18.1789 16.3201 17.5898 15.7332 17.5898 15.0218V12.3183C17.5898 11.3045 16.8579 10.3975 15.8404 10.3085C14.6979 10.2018 13.7339 11.1089 13.7339 12.2116V19.6283C13.7339 20.3575 13.1448 20.9445 12.4129 20.9445H12.163C11.4311 20.9445 10.842 20.3575 10.842 19.6283V2.51835C10.842 1.50455 10.1101 0.597477 9.09255 0.508548C7.95006 0.401833 6.98609 1.30891 6.98609 2.41163V14.4348C6.98609 15.1463 6.39699 15.7332 5.68294 15.7332H5.39732C4.68326 15.7332 4.09417 15.1463 4.09417 14.4348V7.01816C4.09417 6.00437 3.36227 5.09729 2.34474 5.00836C1.20225 4.90165 0.238281 5.80872 0.238281 6.91144V21.2468C0.238281 22.2606 0.970186 23.1677 1.98771 23.2566C3.1302 23.3633 4.09417 22.4563 4.09417 21.3535V19.7528C4.09417 19.0236 4.68327 18.4367 5.41517 18.4367H5.68294C6.39699 18.4367 6.98609 19.0236 6.98609 19.735V29.4817C6.98609 30.4954 7.71799 31.4025 8.73552 31.4914C9.87801 31.5982 10.842 30.6911 10.842 29.5884V24.9463C10.842 24.217 11.4311 23.6301 12.163 23.6301H12.4307C13.1448 23.6301 13.7339 24.217 13.7339 24.9285V25.551C13.7339 26.5648 14.4658 27.4719 15.4833 27.5608C16.6258 27.6675 17.5898 26.7604 17.5898 25.6577V20.2864C17.5898 19.5749 18.1789 18.988 18.8929 18.988H19.1786C19.8926 18.988 20.4817 19.5749 20.4817 20.2864V21.2646C20.4817 22.2784 21.2136 23.1855 22.2311 23.2744C23.3736 23.3811 24.3376 22.474 24.3376 21.3713L24.3554 17.5118C24.3554 16.8004 24.9267 16.2312 25.6407 16.2312H25.6586H25.9442H25.9621C26.6404 16.2312 27.1938 16.7648 27.2295 17.4229L27.2474 17.9564C27.3188 18.9524 28.1399 19.7528 29.1753 19.7528C30.2464 19.7528 31.1211 18.8813 31.1211 17.8142V10.4686C31.1032 9.40146 30.2285 8.52995 29.1575 8.52995Z" fill="#252A37"/>
<path d="M15.2329 8.47685C16.6431 8.77921 17.857 7.56978 17.5535 6.1647C17.3929 5.45327 16.8395 4.88412 16.1254 4.74183C14.7152 4.43947 13.5013 5.64891 13.8047 7.05399C13.9476 7.76542 14.501 8.31678 15.2329 8.47685Z" fill="#252A37"/>
<path d="M55.8337 23.9988L54.7099 19.6001H44.595L43.4712 23.9988H41.7051L45.9999 6.6438H53.305L57.5998 23.9588H55.8337V23.9988ZM54.3085 17.9605L51.9002 8.28333H47.3646L44.9563 17.9605H54.3085Z" fill="#B78861"/>
<path d="M61.2932 12.4412V19.2392C61.2932 20.4389 61.6143 21.3586 62.2164 22.0384C62.8185 22.6782 63.6212 22.9981 64.5444 22.9981C65.1866 22.9981 65.7486 22.8382 66.2302 22.5582C66.7119 22.2783 67.1133 21.9584 67.4344 21.5985C67.7956 21.1986 68.1569 20.7588 68.4378 20.1989V12.4412H70.0835V23.9978H68.4378V22.3583H68.3174C68.0364 22.7982 67.6752 23.1181 67.314 23.438C66.9928 23.7179 66.5915 23.9578 66.1098 24.1578C65.6282 24.3977 65.0662 24.4777 64.424 24.4777C63.7417 24.4777 63.0994 24.3577 62.4974 24.1178C61.9354 23.8779 61.4136 23.518 60.9721 23.0781C60.5306 22.6382 60.2095 22.0784 59.9687 21.4386C59.7278 20.7988 59.6074 20.039 59.6074 19.2392V12.4412H61.2932Z" fill="#B78861"/>
<path d="M82.1243 23.9978V22.3583H82.0039C81.763 22.7982 81.4419 23.1181 81.0405 23.438C80.7194 23.7179 80.2779 23.9578 79.7963 24.1578C79.3146 24.3577 78.7527 24.4777 78.0703 24.4777C77.3478 24.4777 76.6655 24.3177 75.9831 24.0378C75.3008 23.7179 74.7389 23.278 74.2171 22.7182C73.6953 22.1584 73.2939 21.5185 72.9728 20.7188C72.6517 19.959 72.5312 19.1192 72.5312 18.1995C72.5312 17.2798 72.6918 16.48 72.9728 15.6802C73.2939 14.9204 73.6953 14.2406 74.2171 13.6808C74.7389 13.121 75.3008 12.7211 75.9831 12.3612C76.6655 12.0413 77.3478 11.9213 78.0703 11.9213C78.7125 11.9213 79.3146 12.0413 79.7963 12.2412C80.2779 12.4811 80.7194 12.7211 81.0405 13.001C81.4018 13.3209 81.763 13.6408 82.0039 14.0407H82.1243V6.64282H83.7699V23.9578H82.1243V23.9978ZM81.161 14.8005C80.8399 14.4806 80.3983 14.1607 79.9167 13.8407C79.435 13.5608 78.8731 13.4009 78.1907 13.4009C77.6689 13.4009 77.1471 13.5208 76.6655 13.7208C76.1838 13.9607 75.7423 14.2806 75.3811 14.7205C75.0198 15.1604 74.7388 15.6402 74.498 16.2401C74.2572 16.7999 74.1769 17.4797 74.1769 18.1995C74.1769 18.9193 74.2973 19.5991 74.498 20.1589C74.7388 20.7188 75.0198 21.2386 75.3811 21.6785C75.7423 22.1184 76.1838 22.3983 76.6655 22.6382C77.1471 22.8781 77.6689 22.9981 78.1907 22.9981C78.8329 22.9981 79.435 22.8382 79.9167 22.5582C80.3983 22.2783 80.8399 21.9584 81.161 21.5985C81.5222 21.1986 81.8834 20.7588 82.1243 20.1989V16.2001C81.8834 15.6802 81.5623 15.2403 81.161 14.8005Z" fill="#B78861"/>
<path d="M87.3016 6.84286C87.5424 6.60293 87.7832 6.52295 88.1043 6.52295C88.4254 6.52295 88.6663 6.64291 88.9071 6.84286C89.1479 7.08279 89.2282 7.32272 89.2282 7.64263C89.2282 7.96253 89.1078 8.20247 88.9071 8.4424C88.6663 8.68233 88.4254 8.7623 88.1043 8.7623C87.7832 8.7623 87.5424 8.64234 87.3016 8.4424C87.0607 8.24245 86.9805 7.96253 86.9805 7.64263C86.9805 7.32272 87.0607 7.08279 87.3016 6.84286ZM87.3016 23.9979V12.4412H88.9472V23.9979H87.3016Z" fill="#B78861"/>
<path d="M103.317 20.7189C102.996 21.4786 102.554 22.1584 102.033 22.7183C101.471 23.2781 100.828 23.718 100.106 24.0379C99.3834 24.3578 98.5806 24.4778 97.6976 24.4778C96.8547 24.4778 96.0519 24.3178 95.3294 24.0379C94.6069 23.718 93.9246 23.2781 93.4028 22.7183C92.8409 22.1584 92.3993 21.5186 92.1184 20.7189C91.7973 19.9591 91.6367 19.1193 91.6367 18.1996C91.6367 17.2798 91.7973 16.4801 92.1184 15.6803C92.4395 14.9205 92.8409 14.2407 93.4028 13.6809C93.9246 13.121 94.6069 12.7212 95.3294 12.3613C96.0519 12.0414 96.8547 11.9214 97.6976 11.9214C98.5405 11.9214 99.3432 12.0813 100.106 12.3613C100.828 12.6812 101.471 13.121 102.033 13.6809C102.554 14.2407 102.996 14.9205 103.317 15.6803C103.638 16.4401 103.758 17.2798 103.758 18.1996C103.758 19.1193 103.638 19.9191 103.317 20.7189ZM101.792 16.2801C101.551 15.7203 101.23 15.1605 100.828 14.7606C100.427 14.3207 99.9855 14.0008 99.4235 13.7609C98.9017 13.5209 98.2997 13.401 97.6976 13.401C97.0955 13.401 96.5336 13.5209 96.0118 13.7609C95.49 14.0008 95.0083 14.3207 94.6069 14.7606C94.2056 15.2004 93.8845 15.7203 93.6436 16.2801C93.4028 16.84 93.2824 17.5198 93.2824 18.1996C93.2824 18.8794 93.4028 19.5192 93.6436 20.119C93.8845 20.6789 94.2056 21.2387 94.6069 21.6386C95.0083 22.0785 95.49 22.3984 96.0118 22.6383C96.5336 22.8782 97.1356 22.9982 97.6976 22.9982C98.2997 22.9982 98.9017 22.8782 99.4235 22.6383C99.9453 22.3984 100.427 22.0785 100.828 21.6386C101.23 21.1987 101.551 20.7189 101.792 20.119C102.033 19.5592 102.153 18.8794 102.153 18.1996C102.153 17.5198 102.033 16.88 101.792 16.2801Z" fill="#B78861"/>
</svg>
