<svg width="104" height="31" viewBox="0 0 104 31" fill="none" xmlns="http://www.w3.org/2000/svg">
<path d="M28.4917 24.749C29.902 25.0513 31.1158 23.8241 30.7767 22.419C30.616 21.7076 30.0448 21.1562 29.3307 20.9962C27.9205 20.6938 26.7066 21.921 27.0457 23.3261C27.2064 24.0376 27.7955 24.6067 28.4917 24.749Z" fill="#EDEDED"/>
<path d="M28.9192 8.02995C27.9016 8.02995 27.0626 8.83032 26.9912 9.82632L26.9734 11.8361C26.9198 12.4942 26.3843 13.0278 25.7059 13.0278H25.6881H25.4025H25.3846C24.6705 13.0278 24.0993 12.4586 24.0993 11.7472V6.41144C24.0993 6.41144 24.0993 6.39366 24.1172 6.39366H28.9192C29.9902 6.39366 30.865 5.52215 30.865 4.455C30.865 3.38785 29.9902 2.51635 28.9192 2.51635H22.1892C21.1181 2.51635 20.2434 3.38785 20.2434 4.455C20.2434 4.455 20.2434 4.455 20.2434 4.47279V14.5218C20.2434 15.2332 19.6543 15.8201 18.9403 15.8201H18.6546C17.9406 15.8201 17.3515 15.2332 17.3515 14.5218V11.8183C17.3515 10.8045 16.6196 9.89746 15.6021 9.80854C14.4596 9.70182 13.4956 10.6089 13.4956 11.7116V19.1283C13.4956 19.8575 12.9065 20.4445 12.1746 20.4445H11.9247C11.1928 20.4445 10.6037 19.8575 10.6037 19.1283V2.01835C10.6037 1.00455 9.87179 0.0974772 8.85426 0.00854811C7.71178 -0.0981668 6.74781 0.80891 6.74781 1.91163V13.9348C6.74781 14.6463 6.15871 15.2332 5.44466 15.2332H5.15904C4.44498 15.2332 3.85589 14.6463 3.85589 13.9348V6.51816C3.85589 5.50437 3.12398 4.59729 2.10646 4.50836C0.963972 4.40165 0 5.30872 0 6.41144V20.7468C0 21.7606 0.731905 22.6677 1.74943 22.7566C2.89192 22.8633 3.85589 21.9563 3.85589 20.8535V19.2528C3.85589 18.5236 4.44498 17.9367 5.17689 17.9367H5.44466C6.15871 17.9367 6.74781 18.5236 6.74781 19.235V28.9817C6.74781 29.9954 7.47971 30.9025 8.49724 30.9914C9.63972 31.0982 10.6037 30.1911 10.6037 29.0884V24.4463C10.6037 23.717 11.1928 23.1301 11.9247 23.1301H12.1925C12.9065 23.1301 13.4956 23.717 13.4956 24.4285V25.051C13.4956 26.0648 14.2275 26.9719 15.245 27.0608C16.3875 27.1675 17.3515 26.2604 17.3515 25.1577V19.7864C17.3515 19.0749 17.9406 18.488 18.6546 18.488H18.9403C19.6543 18.488 20.2434 19.0749 20.2434 19.7864V20.7646C20.2434 21.7784 20.9753 22.6855 21.9928 22.7744C23.1353 22.8811 24.0993 21.974 24.0993 20.8713L24.1172 17.0118C24.1172 16.3004 24.6884 15.7312 25.4025 15.7312H25.4203H25.7059H25.7238C26.4021 15.7312 26.9555 16.2648 26.9912 16.9229L27.0091 17.4564C27.0805 18.4524 27.9016 19.2528 28.937 19.2528C30.0081 19.2528 30.8828 18.3813 30.8828 17.3142V9.96861C30.865 8.90146 29.9902 8.02995 28.9192 8.02995Z" fill="#EDEDED"/>
<path d="M14.9956 7.97685C16.4058 8.27921 17.6197 7.06978 17.3162 5.6647C17.1556 4.95327 16.6022 4.38412 15.8881 4.24183C14.4779 3.93947 13.264 5.14891 13.5674 6.55399C13.7103 7.26542 14.2636 7.81678 14.9956 7.97685Z" fill="#EDEDED"/>
<path d="M55.5954 23.4988L54.4716 19.1001H44.3567L43.2329 23.4988H41.4668L45.7616 6.1438H53.0667L57.3615 23.4588H55.5954V23.4988ZM54.0702 17.4605L51.6619 7.78333H47.1263L44.718 17.4605H54.0702Z" fill="#EDEDED"/>
<path d="M61.054 11.9413V18.7393C61.054 19.939 61.3751 20.8587 61.9771 21.5385C62.5792 22.1783 63.382 22.4982 64.3052 22.4982C64.9474 22.4982 65.5093 22.3383 65.991 22.0584C66.4726 21.7785 66.874 21.4585 67.1951 21.0986C67.5564 20.6988 67.9176 20.2589 68.1986 19.6991V11.9413H69.8442V23.498H68.1986V21.8584H68.0782C67.7972 22.2983 67.4359 22.6182 67.0747 22.9381C66.7536 23.218 66.3522 23.458 65.8706 23.6579C65.3889 23.8978 64.827 23.9778 64.1847 23.9778C63.5024 23.9778 62.8602 23.8579 62.2581 23.6179C61.6962 23.378 61.1744 23.0181 60.7329 22.5782C60.2913 22.1383 59.9702 21.5785 59.7294 20.9387C59.4886 20.2989 59.3682 19.5391 59.3682 18.7393V11.9413H61.054Z" fill="#EDEDED"/>
<path d="M81.886 23.4978V21.8583H81.7656C81.5248 22.2982 81.2036 22.6181 80.8023 22.938C80.4812 23.2179 80.0396 23.4578 79.558 23.6578C79.0763 23.8577 78.5144 23.9777 77.832 23.9777C77.1096 23.9777 76.4272 23.8177 75.7449 23.5378C75.0625 23.2179 74.5006 22.778 73.9788 22.2182C73.457 21.6584 73.0556 21.0185 72.7345 20.2188C72.4134 19.459 72.293 18.6192 72.293 17.6995C72.293 16.7798 72.4535 15.98 72.7345 15.1802C73.0556 14.4204 73.457 13.7406 73.9788 13.1808C74.5006 12.621 75.0625 12.2211 75.7449 11.8612C76.4272 11.5413 77.1096 11.4213 77.832 11.4213C78.4743 11.4213 79.0763 11.5413 79.558 11.7412C80.0396 11.9811 80.4812 12.2211 80.8023 12.501C81.1635 12.8209 81.5248 13.1408 81.7656 13.5407H81.886V6.14282H83.5317V23.4578H81.886V23.4978ZM80.9227 14.3005C80.6016 13.9806 80.1601 13.6607 79.6784 13.3407C79.1967 13.0608 78.6348 12.9009 77.9525 12.9009C77.4307 12.9009 76.9089 13.0208 76.4272 13.2208C75.9455 13.4607 75.504 13.7806 75.1428 14.2205C74.7815 14.6604 74.5006 15.1402 74.2597 15.7401C74.0189 16.2999 73.9386 16.9797 73.9386 17.6995C73.9386 18.4193 74.059 19.0991 74.2597 19.6589C74.5006 20.2188 74.7815 20.7386 75.1428 21.1785C75.504 21.6184 75.9455 21.8983 76.4272 22.1382C76.9089 22.3781 77.4307 22.4981 77.9525 22.4981C78.5947 22.4981 79.1967 22.3382 79.6784 22.0582C80.1601 21.7783 80.6016 21.4584 80.9227 21.0985C81.2839 20.6986 81.6452 20.2588 81.886 19.6989V15.7001C81.6452 15.1802 81.3241 14.7403 80.9227 14.3005Z" fill="#EDEDED"/>
<path d="M87.0643 6.34286C87.3051 6.10293 87.5459 6.02295 87.867 6.02295C88.1881 6.02295 88.429 6.14291 88.6698 6.34286C88.9106 6.58279 88.9909 6.82272 88.9909 7.14263C88.9909 7.46253 88.8705 7.70247 88.6698 7.9424C88.429 8.18233 88.1881 8.2623 87.867 8.2623C87.5459 8.2623 87.3051 8.14234 87.0643 7.9424C86.8234 7.74245 86.7432 7.46253 86.7432 7.14263C86.7432 6.82272 86.8234 6.58279 87.0643 6.34286ZM87.0643 23.4979V11.9412H88.7099V23.4979H87.0643Z" fill="#EDEDED"/>
<path d="M103.08 20.2189C102.759 20.9786 102.317 21.6584 101.795 22.2183C101.233 22.7781 100.591 23.218 99.8686 23.5379C99.1461 23.8578 98.3433 23.9778 97.4603 23.9778C96.6174 23.9778 95.8146 23.8178 95.0921 23.5379C94.3696 23.218 93.6873 22.7781 93.1655 22.2183C92.6036 21.6584 92.162 21.0186 91.8811 20.2189C91.56 19.4591 91.3994 18.6193 91.3994 17.6996C91.3994 16.7798 91.56 15.9801 91.8811 15.1803C92.2022 14.4205 92.6036 13.7407 93.1655 13.1809C93.6873 12.621 94.3696 12.2212 95.0921 11.8613C95.8146 11.5414 96.6174 11.4214 97.4603 11.4214C98.3032 11.4214 99.1059 11.5813 99.8686 11.8613C100.591 12.1812 101.233 12.621 101.795 13.1809C102.317 13.7407 102.759 14.4205 103.08 15.1803C103.401 15.9401 103.521 16.7798 103.521 17.6996C103.521 18.6193 103.401 19.4191 103.08 20.2189ZM101.554 15.7801C101.314 15.2203 100.992 14.6605 100.591 14.2606C100.19 13.8207 99.7482 13.5008 99.1862 13.2609C98.6644 13.0209 98.0624 12.901 97.4603 12.901C96.8582 12.901 96.2963 13.0209 95.7745 13.2609C95.2527 13.5008 94.771 13.8207 94.3696 14.2606C93.9683 14.7004 93.6471 15.2203 93.4063 15.7801C93.1655 16.34 93.0451 17.0198 93.0451 17.6996C93.0451 18.3794 93.1655 19.0192 93.4063 19.619C93.6471 20.1789 93.9683 20.7387 94.3696 21.1386C94.771 21.5785 95.2527 21.8984 95.7745 22.1383C96.2963 22.3782 96.8983 22.4982 97.4603 22.4982C98.0624 22.4982 98.6644 22.3782 99.1862 22.1383C99.708 21.8984 100.19 21.5785 100.591 21.1386C100.992 20.6987 101.314 20.2189 101.554 19.619C101.795 19.0592 101.916 18.3794 101.916 17.6996C101.916 17.0198 101.795 16.38 101.554 15.7801Z" fill="#EDEDED"/>
</svg>
