<svg width="97" height="101" viewBox="0 0 97 101" fill="none" xmlns="http://www.w3.org/2000/svg">
<path d="M73.3557 47.1815C76.0398 47.757 78.3503 45.4212 77.7047 42.7469C77.3989 41.3928 76.3117 40.3433 74.9526 40.0387C72.2684 39.4632 69.9579 41.799 70.6035 44.4733C70.9093 45.8274 72.0305 46.9107 73.3557 47.1815Z" fill="#252A37"/>
<path d="M74.1718 15.3599C72.2351 15.3599 70.6382 16.8832 70.5023 18.779L70.4683 22.6043C70.3664 23.8568 69.3471 24.8724 68.0559 24.8724H68.022H67.4783H67.4444C66.0853 24.8724 64.998 23.7891 64.998 22.435V12.2793C64.998 12.2793 64.998 12.2455 65.032 12.2455H74.1718C76.2104 12.2455 77.8753 10.5867 77.8753 8.55554C77.8753 6.5244 76.2104 4.86563 74.1718 4.86563H61.3624C59.3238 4.86563 57.6589 6.5244 57.6589 8.55554C57.6589 8.55554 57.6589 8.55554 57.6589 8.5894V27.716C57.6589 29.0701 56.5377 30.1872 55.1786 30.1872H54.635C53.2759 30.1872 52.1547 29.0701 52.1547 27.716V22.5704C52.1547 20.6409 50.7616 18.9144 48.8249 18.7451C46.6504 18.542 44.8156 20.2685 44.8156 22.3673V36.4838C44.8156 37.8717 43.6944 38.9889 42.3013 38.9889H41.8256C40.4326 38.9889 39.3113 37.8717 39.3113 36.4838V3.91776C39.3113 1.98818 37.9182 0.261704 35.9816 0.0924418C33.807 -0.110673 31.9723 1.6158 31.9723 3.71465V26.5989C31.9723 27.953 30.851 29.0701 29.4919 29.0701H28.9483C27.5892 29.0701 26.468 27.953 26.468 26.5989V12.4824C26.468 10.5528 25.0749 8.82636 23.1382 8.6571C20.9637 8.45399 19.1289 10.1805 19.1289 12.2793V39.5644C19.1289 41.4939 20.522 43.2204 22.4587 43.3897C24.6332 43.5928 26.468 41.8663 26.468 39.7675V36.7207C26.468 35.3328 27.5892 34.2157 28.9823 34.2157H29.4919C30.851 34.2157 31.9723 35.3328 31.9723 36.6869V55.238C31.9723 57.1676 33.3653 58.8941 35.302 59.0633C37.4765 59.2664 39.3113 57.54 39.3113 55.4411V46.6056C39.3113 45.2177 40.4326 44.1006 41.8256 44.1006H42.3353C43.6944 44.1006 44.8156 45.2177 44.8156 46.5718V47.7566C44.8156 49.6862 46.2087 51.4127 48.1454 51.582C50.3199 51.7851 52.1547 50.0586 52.1547 47.9597V37.7363C52.1547 36.3822 53.2759 35.2651 54.635 35.2651H55.1786C56.5377 35.2651 57.6589 36.3822 57.6589 37.7363V39.5982C57.6589 41.5278 59.052 43.2543 60.9887 43.4235C63.1632 43.6266 64.998 41.9002 64.998 39.8013L65.032 32.4553C65.032 31.1012 66.1192 30.018 67.4783 30.018H67.5123H68.0559H68.0899C69.381 30.018 70.4343 31.0335 70.5023 32.2861L70.5363 33.3017C70.6722 35.1974 72.2351 36.7207 74.2058 36.7207C76.2444 36.7207 77.9093 35.062 77.9093 33.0308V19.0498C77.8753 17.0186 76.2104 15.3599 74.1718 15.3599Z" fill="#252A37"/>
<path d="M47.6688 15.2586C50.353 15.834 52.6635 13.5321 52.0859 10.8577C51.7801 9.50365 50.7268 8.42037 49.3677 8.14955C46.6835 7.57406 44.3731 9.87603 44.9507 12.5504C45.2225 13.9045 46.2758 14.9539 47.6688 15.2586Z" fill="#252A37"/>
<path d="M4.31413 74.9742V79.375H10.5999V74.9742C10.5999 74.0602 11.3474 73.3154 12.2648 73.3154C13.1822 73.3154 13.9297 74.0602 13.9297 74.9742V86.5517C13.9297 87.4657 13.1822 88.2105 12.2648 88.2105C11.3474 88.2105 10.5999 87.4657 10.5999 86.5517V82.354H4.31413V86.5517C4.31413 87.4657 3.56664 88.2105 2.64925 88.2105C1.73187 88.2105 0.984375 87.4657 0.984375 86.5517V74.9742C0.984375 74.0602 1.73187 73.3154 2.64925 73.3154C3.60061 73.3154 4.31413 74.0602 4.31413 74.9742Z" fill="#B78861"/>
<path d="M16.4102 86.7212V79.4768C16.4102 78.6644 17.0897 77.9873 17.9051 77.9873C18.7206 77.9873 19.4001 78.6644 19.4001 79.4768V86.7212C19.4001 87.5337 18.7206 88.2107 17.9051 88.2107C17.0897 88.2107 16.4102 87.5337 16.4102 86.7212Z" fill="#B78861"/>
<path d="M16.4102 74.8391C16.4102 73.9928 17.0897 73.3496 17.9051 73.3496C18.7206 73.3496 19.4001 74.0267 19.4001 74.8391C19.4001 75.6516 18.7206 76.3286 17.9051 76.3286C17.0897 76.2948 16.4102 75.6516 16.4102 74.8391Z" fill="#B78861"/>
<path d="M34.7578 74.8391C34.7578 73.9928 35.4374 73.3496 36.2528 73.3496C37.0683 73.3496 37.7478 74.0267 37.7478 74.8391C37.7478 75.6516 37.0683 76.3286 36.2528 76.3286C35.4034 76.2948 34.7578 75.6516 34.7578 74.8391Z" fill="#B78861"/>
<path d="M21.9141 86.5517V75.3466C21.9141 74.2294 22.8314 73.3154 23.9527 73.3154H31.8354C32.6508 73.3154 33.3304 73.9925 33.3304 74.8049C33.3304 75.6174 32.6508 76.2944 31.8354 76.2944H25.2098V79.8151H30.2385C31.0539 79.8151 31.7334 80.4921 31.7334 81.3046C31.7334 82.1171 31.0539 82.7941 30.2385 82.7941H25.2098V86.5517C25.2098 87.4657 24.4623 88.2105 23.545 88.2105C22.6616 88.2105 21.9141 87.4657 21.9141 86.5517Z" fill="#B78861"/>
<path d="M34.7578 86.7212V79.4768C34.7578 78.6644 35.4374 77.9873 36.2528 77.9873C37.0683 77.9873 37.7478 78.6644 37.7478 79.4768V86.7212C37.7478 87.5337 37.0683 88.2107 36.2528 88.2107C35.4034 88.2107 34.7578 87.5337 34.7578 86.7212Z" fill="#B78861"/>
<path d="M55.4162 88.2108L54.4648 84.4871H45.9366L44.9852 88.2108H43.4902L47.1258 73.5527H53.3096L56.9452 88.2108H55.4162ZM54.159 83.0991L52.1204 74.9068H48.281L46.2424 83.0991H54.159Z" fill="#B78861"/>
<path d="M60.0696 78.4274V84.1823C60.0696 85.1979 60.3414 85.9765 60.8511 86.552C61.3608 87.0936 62.0403 87.3645 62.8218 87.3645C63.3654 87.3645 63.8411 87.229 64.2488 86.9921C64.6565 86.7551 64.9963 86.4843 65.2681 86.1796C65.5739 85.8411 65.8797 85.4687 66.1176 84.9948V78.3936H67.5106V88.1769H66.1176V86.789H66.0156C65.7778 87.1613 65.472 87.4322 65.1662 87.703C64.8944 87.9399 64.5546 88.1431 64.1469 88.3123C63.7392 88.5154 63.2635 88.5831 62.7198 88.5831C62.1422 88.5831 61.5986 88.4816 61.0889 88.2785C60.6133 88.0754 60.1715 87.7707 59.7978 87.3983C59.4241 87.0259 59.1522 86.552 58.9484 86.0104C58.7445 85.4687 58.6426 84.8255 58.6426 84.1485V78.3936H60.0696V78.4274Z" fill="#B78861"/>
<path d="M77.7045 88.2105V86.8225H77.6026C77.3987 87.1949 77.1269 87.4657 76.7871 87.7366C76.5153 87.9735 76.1416 88.1766 75.7338 88.3459C75.3261 88.5152 74.8504 88.6167 74.2728 88.6167C73.6612 88.6167 73.0836 88.4813 72.506 88.2443C71.9284 87.9735 71.4527 87.6011 71.011 87.1272C70.5693 86.6533 70.2295 86.1116 69.9577 85.4346C69.6859 84.7914 69.584 84.0805 69.584 83.3019C69.584 82.5233 69.7199 81.8462 69.9577 81.1692C70.2295 80.526 70.5693 79.9505 71.011 79.4766C71.4527 79.0026 71.9284 78.6641 72.506 78.3594C73.0836 78.0886 73.6612 77.9871 74.2728 77.9871C74.8165 77.9871 75.3261 78.0886 75.7338 78.2579C76.1416 78.4272 76.5153 78.6641 76.7871 78.9011C77.0929 79.1719 77.3987 79.4427 77.6026 79.7812H77.7045V73.5186H79.0976V88.1766H77.7045V88.2105ZM76.8891 80.4583C76.6172 80.1875 76.2435 79.9167 75.8358 79.6458C75.428 79.4089 74.9524 79.2735 74.3747 79.2735C73.933 79.2735 73.4913 79.375 73.0836 79.5443C72.6759 79.7474 72.3021 80.0182 71.9964 80.3906C71.6906 80.763 71.4527 81.1692 71.2489 81.677C71.045 82.1509 70.977 82.7264 70.977 83.3357C70.977 83.9451 71.079 84.5206 71.2489 84.9945C71.4527 85.4684 71.6906 85.9085 71.9964 86.2809C72.3021 86.6533 72.6759 86.8902 73.0836 87.0934C73.4913 87.2965 73.933 87.398 74.3747 87.398C74.9184 87.398 75.428 87.2626 75.8358 87.0257C76.2435 86.7887 76.6172 86.5179 76.8891 86.2132C77.1948 85.8747 77.5006 85.5023 77.7045 85.0284V81.6431C77.5006 81.1692 77.1948 80.7968 76.8891 80.4583Z" fill="#B78861"/>
<path d="M82.0882 73.6878C82.2921 73.4847 82.496 73.417 82.7678 73.417C83.0396 73.417 83.2435 73.5186 83.4473 73.6878C83.6512 73.8571 83.7191 74.094 83.7191 74.3649C83.7191 74.6357 83.6172 74.8388 83.4473 75.0419C83.2774 75.245 83.0396 75.3127 82.7678 75.3127C82.496 75.3127 82.2921 75.2112 82.0882 75.0419C81.8844 74.8726 81.8164 74.6357 81.8164 74.3649C81.8164 74.094 81.8844 73.8909 82.0882 73.6878ZM82.0882 88.2105V78.4271H83.4813V88.2105H82.0882Z" fill="#B78861"/>
<path d="M95.6452 85.4348C95.3733 86.078 94.9996 86.6535 94.5579 87.1275C94.0822 87.6014 93.5386 87.9738 92.927 88.2446C92.3154 88.5154 91.6359 88.617 90.8884 88.617C90.1748 88.617 89.4953 88.4815 88.8837 88.2446C88.2721 87.9738 87.6945 87.6014 87.2528 87.1275C86.7771 86.6535 86.4034 86.1119 86.1655 85.4348C85.8937 84.7916 85.7578 84.0807 85.7578 83.3021C85.7578 82.5235 85.8937 81.8465 86.1655 81.1694C86.4374 80.5262 86.7771 79.9507 87.2528 79.4768C87.6945 79.0029 88.2721 78.6644 88.8837 78.3597C89.4953 78.0889 90.1748 77.9873 90.8884 77.9873C91.6019 77.9873 92.2814 78.1227 92.927 78.3597C93.5386 78.6305 94.0822 79.0029 94.5579 79.4768C94.9996 79.9507 95.3733 80.5262 95.6452 81.1694C95.917 81.8126 96.0189 82.5235 96.0189 83.3021C96.0189 84.0807 95.917 84.7916 95.6452 85.4348ZM94.354 81.7111C94.1502 81.2371 93.8783 80.7632 93.5386 80.4247C93.1988 80.0523 92.8251 79.7815 92.3494 79.5784C91.8737 79.3753 91.398 79.2737 90.8884 79.2737C90.3787 79.2737 89.903 79.3753 89.4613 79.5784C89.0196 79.7815 88.6119 80.0523 88.2721 80.4247C87.9323 80.7971 87.6605 81.2371 87.4567 81.7111C87.2528 82.185 87.1509 82.7605 87.1509 83.336C87.1509 83.9115 87.2528 84.4531 87.4567 84.9609C87.6605 85.4348 87.9323 85.9088 88.2721 86.2473C88.6119 86.6197 89.0196 86.8905 89.4613 87.0936C89.903 87.2967 90.4127 87.3983 90.8884 87.3983C91.398 87.3983 91.9077 87.2967 92.3494 87.0936C92.7911 86.8905 93.1988 86.6197 93.5386 86.2473C93.8783 85.8749 94.1502 85.4687 94.354 84.9609C94.5579 84.487 94.6598 83.9115 94.6598 83.336C94.6598 82.7266 94.5239 82.185 94.354 81.7111Z" fill="#B78861"/>
<path d="M27.3504 93.7627H32.379V94.3382H30.1705V99.9238H29.5249V94.3382H27.3164V93.7627H27.3504Z" fill="#B78861"/>
<path d="M34.1125 96.2337C33.9086 96.2337 33.7047 96.2675 33.5349 96.3691C33.365 96.4707 33.2291 96.5722 33.0932 96.7076C32.9573 96.843 32.8553 97.0123 32.7534 97.1816V99.9575H32.1758V95.8275H32.7534V96.4029H32.7874C32.8893 96.2675 32.9912 96.1321 33.1271 96.0306C33.2291 95.929 33.399 95.8275 33.5688 95.7598C33.7387 95.6921 33.9086 95.6582 34.1465 95.6582H34.2824V96.2337H34.1125Z" fill="#B78861"/>
<path d="M35.6069 95.8273V98.2308C35.6069 98.6709 35.7088 98.9756 35.9467 99.2126C36.1505 99.4495 36.4563 99.5511 36.7961 99.5511C37.0339 99.5511 37.2378 99.4834 37.4077 99.4157C37.5776 99.3141 37.7135 99.2125 37.8494 99.0771C37.9853 98.9417 38.1212 98.7725 38.2231 98.5693V95.7935H38.8008V99.9234H38.2231V99.348H38.1892C38.0872 99.4834 37.9513 99.6188 37.8154 99.7203C37.7135 99.8219 37.5436 99.8896 37.3737 99.9912C37.2038 100.059 37 100.093 36.7621 100.093C36.5243 100.093 36.2864 100.059 36.0826 99.9573C35.8787 99.8557 35.7088 99.7542 35.539 99.5849C35.403 99.4157 35.2671 99.2125 35.1652 99.0094C35.0973 98.7725 35.0293 98.5016 35.0293 98.2308V95.8273H35.6069Z" fill="#B78861"/>
<path d="M42.5377 95.8276C42.7755 95.9292 43.0133 96.0984 43.1832 96.3016C43.3871 96.5047 43.523 96.7416 43.6249 97.0125C43.7269 97.2833 43.7948 97.5879 43.7948 97.8926L43.523 98.1634H40.2272C40.2612 98.3666 40.2952 98.5697 40.3971 98.7389C40.4651 98.9082 40.601 99.0775 40.7369 99.179C40.8728 99.3144 41.0087 99.416 41.2126 99.4837C41.3824 99.5514 41.5863 99.5852 41.7902 99.5852C41.994 99.5852 42.1639 99.5514 42.3338 99.5175C42.4697 99.4837 42.6396 99.416 42.7415 99.3144C42.8435 99.2467 42.9454 99.1452 43.0133 99.0097C43.0813 98.9082 43.1493 98.7728 43.1832 98.6374L43.7608 98.7389C43.6929 98.9082 43.6249 99.0774 43.523 99.2467C43.4211 99.416 43.2852 99.5514 43.1153 99.6868C42.9454 99.8222 42.7415 99.9238 42.5377 99.9915C42.2998 100.059 42.062 100.093 41.7902 100.093C41.4844 100.093 41.2126 100.025 40.9747 99.9238C40.7029 99.8222 40.499 99.6529 40.2952 99.4498C40.0913 99.2467 39.9554 99.0097 39.8535 98.7389C39.7515 98.4681 39.6836 98.1634 39.6836 97.8588C39.6836 97.5202 39.7515 97.2494 39.8535 96.9786C39.9554 96.7078 40.1253 96.4708 40.2952 96.2677C40.499 96.0646 40.7029 95.9292 40.9407 95.7938C41.1786 95.6922 41.4504 95.6245 41.7222 95.6245C42.028 95.6584 42.2998 95.6922 42.5377 95.8276ZM41.2126 96.3016C41.0427 96.3693 40.8728 96.4708 40.7709 96.6062C40.635 96.7416 40.533 96.877 40.4311 97.0463C40.3631 97.2156 40.2952 97.4187 40.2612 97.6218H43.2172C43.1832 97.4187 43.1493 97.2156 43.0473 97.0463C42.9794 96.877 42.8435 96.7078 42.7076 96.6062C42.5716 96.4708 42.4357 96.3693 42.2659 96.3016C42.096 96.2339 41.8921 96.2 41.7222 96.2C41.5523 96.2 41.3824 96.2339 41.2126 96.3016Z" fill="#B78861"/>
<path d="M46.4448 96.4029C46.5128 96.2675 46.6147 96.1321 46.7846 96.0306C46.9205 95.929 47.0904 95.8275 47.2943 95.7598C47.4981 95.6921 47.736 95.6582 48.0078 95.6582C48.2456 95.6582 48.4495 95.6921 48.6533 95.7598C48.8572 95.8275 49.0271 95.8952 49.163 95.9967C49.2989 96.0983 49.4348 96.1998 49.5368 96.3353C49.6387 96.4368 49.7066 96.5722 49.7406 96.6738L49.163 96.7753C49.129 96.7076 49.0611 96.6399 48.9931 96.5722C48.9252 96.5045 48.8572 96.4368 48.7553 96.3691C48.6533 96.3014 48.5514 96.2675 48.4495 96.2337C48.3476 96.1998 48.1777 96.166 48.0418 96.166C47.8719 96.166 47.702 96.1998 47.5661 96.2337C47.4302 96.2675 47.3282 96.3352 47.2263 96.3691C47.1244 96.4368 47.0904 96.5045 47.0224 96.5722C46.9885 96.6399 46.9545 96.7415 46.9545 96.8092C46.9545 96.9784 47.0224 97.1139 47.1584 97.1816C47.2943 97.2831 47.4641 97.3508 47.668 97.4185C47.8719 97.4862 48.0757 97.5201 48.3476 97.5878C48.5854 97.6555 48.8232 97.7232 49.0271 97.8248C49.231 97.9263 49.4008 98.0279 49.5368 98.1971C49.6727 98.3325 49.7406 98.5695 49.7406 98.8065C49.7406 98.9757 49.7066 99.145 49.6387 99.2804C49.5707 99.4158 49.4348 99.5851 49.2989 99.6866C49.163 99.822 48.9591 99.9236 48.7213 99.9913C48.4835 100.059 48.2456 100.093 47.9398 100.093C47.668 100.093 47.4302 100.059 47.2263 99.9913C47.0224 99.9236 46.8186 99.822 46.6827 99.7205C46.5468 99.6189 46.4109 99.4835 46.2749 99.3143C46.173 99.1788 46.0711 99.0096 46.0371 98.8742L46.6147 98.7726C46.6487 98.8742 46.7167 98.9757 46.7846 99.0773C46.8526 99.1788 46.9545 99.2466 47.0564 99.3481C47.1584 99.4158 47.2943 99.4835 47.4302 99.5174C47.5661 99.5512 47.736 99.5851 47.9059 99.5851C48.1097 99.5851 48.2796 99.5512 48.4495 99.5174C48.5854 99.4835 48.7213 99.4158 48.8232 99.3481C48.9252 99.2804 48.9931 99.2127 49.0611 99.1111C49.095 99.0096 49.129 98.9419 49.129 98.8403C49.129 98.6711 49.0611 98.5695 48.9252 98.4679C48.7893 98.3664 48.6194 98.2987 48.4155 98.231C48.2116 98.1633 47.9738 98.1294 47.736 98.0617C47.4981 97.994 47.2943 97.9263 47.0564 97.8586C46.8526 97.7571 46.6827 97.6555 46.5468 97.4862C46.4109 97.3508 46.3429 97.1477 46.3429 96.8769C46.3089 96.7076 46.3769 96.5722 46.4448 96.4029Z" fill="#B78861"/>
<path d="M54.5311 98.7726C54.4292 99.0434 54.2593 99.2804 54.0894 99.4835C53.8856 99.6866 53.6817 99.8559 53.4099 99.9574C53.1381 100.059 52.8663 100.127 52.5605 100.127C52.2547 100.127 51.9829 100.059 51.7111 99.9574C51.4392 99.8559 51.2014 99.6866 51.0315 99.4835C50.8276 99.2804 50.6917 99.0434 50.5898 98.7726C50.4879 98.5018 50.4199 98.1971 50.4199 97.8925C50.4199 97.5539 50.4879 97.2831 50.5898 97.0123C50.6917 96.7415 50.8616 96.5045 51.0315 96.3014C51.2354 96.0983 51.4392 95.9629 51.7111 95.8275C51.9829 95.7259 52.2547 95.6582 52.5605 95.6582C52.8663 95.6582 53.1381 95.7259 53.4099 95.8275C53.6817 95.929 53.8856 96.0983 54.0894 96.3014C54.2933 96.5045 54.4292 96.7415 54.5311 97.0123C54.6331 97.2831 54.701 97.5878 54.701 97.8925C54.6671 98.231 54.6331 98.5018 54.5311 98.7726ZM53.9535 97.2154C53.8856 97.0123 53.7497 96.8092 53.6138 96.6738C53.4779 96.5384 53.308 96.403 53.1041 96.3353C52.9003 96.2675 52.6964 96.1998 52.4925 96.1998C52.2887 96.1998 52.0848 96.2337 51.8809 96.3353C51.6771 96.4368 51.5072 96.5384 51.3713 96.6738C51.2354 96.8092 51.0995 97.0123 51.0315 97.2154C50.9636 97.4185 50.8956 97.6555 50.8956 97.8925C50.8956 98.1294 50.9296 98.3664 51.0315 98.5695C51.0995 98.7726 51.2354 98.9757 51.3713 99.1111C51.5072 99.2465 51.6771 99.382 51.8809 99.4835C52.0848 99.5512 52.2887 99.6189 52.4925 99.6189C52.6964 99.6189 52.9003 99.5851 53.1041 99.4835C53.308 99.4158 53.4439 99.2804 53.6138 99.1111C53.7497 98.9757 53.8856 98.7726 53.9535 98.5695C54.0215 98.3664 54.0894 98.1294 54.0894 97.8925C54.0894 97.6555 54.0555 97.4185 53.9535 97.2154Z" fill="#B78861"/>
<path d="M56.1968 95.8273V98.2308C56.1968 98.6709 56.2987 98.9756 56.5365 99.2126C56.7404 99.4495 57.0462 99.5511 57.3859 99.5511C57.6238 99.5511 57.8277 99.4834 57.9975 99.4157C58.1674 99.3141 58.3033 99.2125 58.4392 99.0771C58.5752 98.9417 58.7111 98.7725 58.813 98.5693V95.7935H59.3906V99.9234H58.813V99.348H58.779C58.6771 99.4834 58.5412 99.6188 58.4053 99.7203C58.3033 99.8219 58.1335 99.8896 57.9636 99.9912C57.7937 100.059 57.5898 100.093 57.352 100.093C57.1141 100.093 56.8763 100.059 56.6724 99.9573C56.4686 99.8557 56.2987 99.7542 56.1288 99.5849C55.9929 99.4157 55.857 99.2125 55.7551 99.0094C55.6531 98.8063 55.6191 98.5016 55.6191 98.2308V95.8273H56.1968Z" fill="#B78861"/>
<path d="M63.6716 99.9573V97.5538C63.6716 97.1137 63.5696 96.809 63.3318 96.5721C63.094 96.3351 62.8222 96.2335 62.4824 96.2335C62.2445 96.2335 62.0747 96.3012 61.9048 96.3689C61.7349 96.4705 61.565 96.6059 61.4631 96.7075C61.3272 96.8429 61.1913 97.0121 61.0893 97.2153V99.9911H60.5117V95.8612H61.0893V96.4367H61.1233C61.2252 96.3012 61.3611 96.1658 61.4971 96.0643C61.599 95.9627 61.7689 95.8612 61.9388 95.7935C62.1086 95.7258 62.3125 95.6919 62.5164 95.6919C62.7542 95.6919 62.992 95.7258 63.1959 95.8273C63.3998 95.9289 63.6036 96.0304 63.7395 96.1997C63.8754 96.3689 64.0114 96.5721 64.0793 96.7752C64.1473 97.0121 64.2152 97.283 64.2152 97.5538V99.9573H63.6716Z" fill="#B78861"/>
<path d="M68.5645 99.9577V99.3822H68.5305C68.4286 99.5176 68.3267 99.653 68.1908 99.7546C68.0888 99.8561 67.9189 99.9238 67.7491 100.025C67.5792 100.093 67.3753 100.127 67.1375 100.127C66.8657 100.127 66.6278 100.059 66.39 99.9577C66.1521 99.8561 65.9483 99.6869 65.7444 99.4838C65.5405 99.2806 65.4046 99.0437 65.3027 98.7728C65.2008 98.502 65.1328 98.1974 65.1328 97.8927C65.1328 97.5542 65.2008 97.2833 65.3027 97.0125C65.4046 96.7417 65.5405 96.5047 65.7444 96.3016C65.9143 96.0985 66.1181 95.9631 66.39 95.8277C66.6278 95.7261 66.8657 95.6584 67.1375 95.6584C67.3753 95.6584 67.5792 95.6923 67.7491 95.76C67.9189 95.8277 68.0888 95.9292 68.1908 96.0308C68.3267 96.1324 68.4286 96.2678 68.5305 96.4032H68.5645V93.7627H69.1421V99.9238H68.5645V99.9577ZM68.1908 96.674C68.0888 96.5724 67.9189 96.437 67.7491 96.3355C67.5792 96.2339 67.3753 96.2001 67.1375 96.2001C66.9336 96.2001 66.7637 96.2339 66.5938 96.3016C66.4239 96.3693 66.2541 96.5047 66.1521 96.6402C66.0162 96.7756 65.9143 96.9787 65.8463 97.1818C65.7784 97.3849 65.7444 97.6219 65.7444 97.8927C65.7444 98.1635 65.7784 98.4005 65.8463 98.6036C65.9143 98.8067 66.0162 98.976 66.1521 99.1452C66.288 99.2806 66.4239 99.416 66.5938 99.4838C66.7637 99.5515 66.9676 99.6192 67.1375 99.6192C67.3753 99.6192 67.5792 99.5515 67.7491 99.4838C67.9189 99.3822 68.0888 99.2806 68.1908 99.1452C68.3267 99.0098 68.4286 98.8406 68.5305 98.6374V97.2156C68.4626 97.0125 68.3267 96.8433 68.1908 96.674Z" fill="#B78861"/>
</svg>
