<svg width="284" height="156" viewBox="0 0 284 156" fill="none" xmlns="http://www.w3.org/2000/svg">
<path d="M21.3028 125.096V143.165L6.57667 125.096H0.90625V154.856H7.6769V136.787L22.4454 154.856H28.0735V125.096H21.3028Z" fill="#B78861"/>
<path d="M51.543 155.366C60.8526 155.366 67.7502 148.861 67.7502 139.976C67.7502 131.091 60.8526 124.586 51.543 124.586C42.191 124.586 35.3357 131.133 35.3357 139.976C35.3357 148.819 42.191 155.366 51.543 155.366ZM51.543 149.499C46.2534 149.499 42.2757 145.63 42.2757 139.976C42.2757 134.322 46.2534 130.453 51.543 130.453C56.8326 130.453 60.8103 134.322 60.8103 139.976C60.8103 145.63 56.8326 149.499 51.543 149.499Z" fill="#B78861"/>
<path d="M80.7408 154.856H87.596V130.708H97.075V125.096H71.2618V130.708H80.7408V154.856Z" fill="#B78861"/>
<path d="M137.262 130.623V125.096H114.877V154.856H121.732V144.015H135.443V138.488H121.732V130.623H137.262Z" fill="#B78861"/>
<path d="M158.075 155.366C167.385 155.366 174.282 148.861 174.282 139.976C174.282 131.091 167.385 124.586 158.075 124.586C148.723 124.586 141.868 131.133 141.868 139.976C141.868 148.819 148.723 155.366 158.075 155.366ZM158.075 149.499C152.786 149.499 148.808 145.63 148.808 139.976C148.808 134.322 152.786 130.453 158.075 130.453C163.365 130.453 167.343 134.322 167.343 139.976C167.343 145.63 163.365 149.499 158.075 149.499Z" fill="#B78861"/>
<path d="M194.711 155.366C203.132 155.366 208.125 150.52 208.125 141.762V125.096H201.354V141.507C201.354 147.161 198.942 149.499 194.753 149.499C190.606 149.499 188.152 147.161 188.152 141.507V125.096H181.296V141.762C181.296 150.52 186.29 155.366 194.711 155.366Z" fill="#B78861"/>
<path d="M237.412 125.096V143.165L222.686 125.096H217.015V154.856H223.786V136.787L238.554 154.856H244.183V125.096H237.412Z" fill="#B78861"/>
<path d="M253.307 154.856H266.763C276.454 154.856 283.098 148.989 283.098 139.976C283.098 130.963 276.454 125.096 266.763 125.096H253.307V154.856ZM260.162 149.202V130.75H266.425C272.307 130.75 276.158 134.279 276.158 139.976C276.158 145.673 272.307 149.202 266.425 149.202H260.162Z" fill="#B78861"/>
<path d="M87.41 58.3474H72.2152V40.8867H51.8222V58.3474H26.7641L67.5501 2.23324H44.8912L0.90625 61.413V75.9414H51.1557V95.5347H72.2152V75.9414H87.41V58.3474Z" fill="#B78861"/>
<path d="M140.519 97.1341C163.578 97.1341 180.505 79.6734 180.505 48.8839C180.505 18.0945 163.578 0.633789 140.519 0.633789C117.593 0.633789 100.533 18.0945 100.533 48.8839C100.533 79.6734 117.593 97.1341 140.519 97.1341ZM140.519 78.8737C129.856 78.8737 122.392 70.0767 122.392 48.8839C122.392 27.6912 129.856 18.8942 140.519 18.8942C151.315 18.8942 158.779 27.6912 158.779 48.8839C158.779 70.0767 151.315 78.8737 140.519 78.8737Z" fill="#B78861"/>
<path d="M283.098 58.3474H267.903V40.8867H247.51V58.3474H222.452L263.238 2.23324H240.579L196.595 61.413V75.9414H246.844V95.5347H267.903V75.9414H283.098V58.3474Z" fill="#B78861"/>
</svg>
