<svg width="12" height="14" viewBox="0 0 12 14" fill="none" xmlns="http://www.w3.org/2000/svg">
<path d="M11.9945 4.00064C11.9945 3.95112 11.9835 3.9016 11.9615 3.85483C11.9175 3.7613 11.8322 3.69802 11.7387 3.67877L6.1348 0.960747C6.04402 0.91673 5.93673 0.91673 5.84594 0.960747L0.18707 3.70353C0.0770289 3.7558 0.00550206 3.86584 0 3.98963V3.99238C0 3.99513 0 3.99789 0 4.00339V10.8865C0 11.013 0.0715269 11.1286 0.18707 11.1836L5.84594 13.9264C5.84869 13.9264 5.84869 13.9264 5.85144 13.9291C5.8597 13.9319 5.86795 13.9346 5.8762 13.9401C5.87895 13.9401 5.88171 13.9429 5.88721 13.9429C5.89546 13.9456 5.90371 13.9484 5.91197 13.9511C5.91472 13.9511 5.91747 13.9539 5.92022 13.9539C5.92847 13.9566 5.93948 13.9566 5.94773 13.9594C5.95048 13.9594 5.95323 13.9594 5.95598 13.9594C5.96699 13.9594 5.98074 13.9621 5.99175 13.9621C6.00275 13.9621 6.01651 13.9621 6.02751 13.9594C6.03026 13.9594 6.03301 13.9594 6.03576 13.9594C6.04402 13.9594 6.05502 13.9566 6.06327 13.9539C6.06602 13.9539 6.06878 13.9511 6.07153 13.9511C6.07978 13.9484 6.08803 13.9456 6.09629 13.9429C6.09904 13.9429 6.10179 13.9401 6.10729 13.9401C6.11554 13.9374 6.1238 13.9346 6.13205 13.9291C6.1348 13.9291 6.1348 13.9291 6.13755 13.9264L11.8129 11.1753C11.9257 11.1203 12 11.0048 12 10.8782V4.00889C11.9945 4.00614 11.9945 4.00339 11.9945 4.00064ZM5.989 1.62375L10.8968 4.00339L9.08941 4.88097L4.18157 2.50132L5.989 1.62375ZM5.989 6.38303L1.08116 4.00339L3.42503 2.86721L8.33288 5.24685L5.989 6.38303ZM0.660248 4.53434L5.65887 6.958V13.101L0.660248 10.6774V4.53434ZM6.31912 13.101V6.958L8.66575 5.81907V7.42567C8.66575 7.60724 8.81431 7.7558 8.99587 7.7558C9.17744 7.7558 9.326 7.60724 9.326 7.42567V5.4972L11.3342 4.52333V10.6664L6.31912 13.101Z" fill="#252A37"/>
</svg>
