<svg width="17" height="17" viewBox="0 0 17 17" fill="none" xmlns="http://www.w3.org/2000/svg">
<path fill-rule="evenodd" clip-rule="evenodd" d="M7.12724 0.550781C3.3823 0.550781 0.339844 3.59678 0.339844 7.33818C0.339844 11.0796 3.38582 14.1256 7.12724 14.1256C8.80955 14.1256 10.3504 13.5112 11.5381 12.4942L15.337 16.2931C15.4385 16.3946 15.5754 16.4497 15.7095 16.4497C15.8425 16.4497 15.98 16.3989 16.0825 16.2927C16.2863 16.0885 16.2861 15.7519 16.0821 15.5479L12.2832 11.749C13.3002 10.5614 13.9146 9.02049 13.9146 7.33818C13.9146 3.59324 10.8686 0.550781 7.12724 0.550781ZM1.39471 7.33818C1.39471 4.17739 3.96641 1.60915 7.12374 1.60915C10.2845 1.60915 12.8528 4.18084 12.8528 7.33818C12.8528 10.4956 10.2845 13.0707 7.12374 13.0707C3.96645 13.0707 1.39471 10.499 1.39471 7.33818Z" fill="#EDEDED"/>
</svg>
