<svg width="15" height="17" viewBox="0 0 15 17" fill="none" xmlns="http://www.w3.org/2000/svg">
<path fill-rule="evenodd" clip-rule="evenodd" d="M7.40724 9.11717H7.35415C6.382 9.10071 5.59565 8.76157 5.01833 8.11293C3.74092 6.68393 3.95327 4.23423 3.9765 4.00046C4.05945 2.23233 4.90884 1.39271 5.6056 1.00089C6.29905 0.609072 7.02236 0.549805 7.39065 0.549805H7.41055H7.42383H7.44705C8.11727 0.562975 8.71782 0.72102 9.2321 1.01406C9.92223 1.40588 10.7583 2.2455 10.8413 4.00046C10.8645 4.23423 11.0769 6.68393 9.79947 8.11293C9.21883 8.76157 8.43248 9.10071 7.46032 9.11717H7.42714H7.40724ZM4.86429 4.06701C4.86339 4.0719 4.86239 4.07734 4.86239 4.08277C4.85907 4.10253 4.63345 6.35138 5.68523 7.52355C6.09997 7.9911 6.6607 8.22158 7.39065 8.22817H7.40724H7.42383C8.15709 8.22158 8.7145 7.9911 9.13256 7.52355C10.1877 6.34479 9.95541 4.10582 9.95209 4.08277C9.94877 4.07619 9.94877 4.06631 9.94877 4.05643C9.84592 1.82404 8.32299 1.46186 7.42714 1.4421H7.4006H7.38733C6.66402 1.4421 4.97519 1.69563 4.8657 4.05643C4.8657 4.05939 4.86503 4.06302 4.86429 4.06701ZM14.2253 13.1706V13.1805C14.2286 13.3517 14.2319 14.2309 14.066 14.6688C14.0329 14.7544 13.9698 14.8268 13.8935 14.8762L13.8921 14.8771C13.7734 14.9517 11.3912 16.4501 7.41691 16.4501C3.42544 16.4501 1.03984 14.9421 0.940306 14.8762C0.860676 14.8268 0.800953 14.7544 0.767774 14.6688C0.591923 14.2276 0.595241 13.3484 0.598559 13.1772V13.1673C0.601877 13.141 0.601877 13.1147 0.601877 13.085L0.60203 13.0801C0.622013 12.4286 0.66858 10.9107 2.1049 10.4213C2.11485 10.418 2.12481 10.4147 2.13808 10.4114C3.6411 10.0328 4.87869 9.1767 4.89196 9.16683C5.09435 9.02524 5.37306 9.07463 5.51573 9.27548C5.6584 9.47633 5.60863 9.75291 5.40624 9.89449C5.40371 9.89611 5.39864 9.89951 5.39111 9.90454C5.23071 10.0118 3.95519 10.865 2.37697 11.2675C1.60389 11.5408 1.51763 12.3607 1.4944 13.1114C1.4944 13.1266 1.49352 13.141 1.49267 13.155C1.49186 13.1681 1.49108 13.1809 1.49108 13.1937C1.48445 13.49 1.50767 13.9477 1.56076 14.2111C2.10158 14.514 4.22174 15.5644 7.41359 15.5644C10.6187 15.5644 12.7256 14.5173 13.2631 14.2144C13.3162 13.951 13.3361 13.4933 13.3328 13.197C13.3295 13.1706 13.3295 13.1443 13.3295 13.1147C13.3062 12.3639 13.22 11.5441 12.4469 11.2708C10.7946 10.8493 9.47402 9.93729 9.41762 9.89778C9.21522 9.7562 9.16545 9.47962 9.30813 9.27877C9.4508 9.07792 9.7295 9.02853 9.9319 9.17012C9.94517 9.17999 11.1894 10.0361 12.6858 10.4147C12.6908 10.4164 12.6966 10.418 12.7024 10.4197C12.7082 10.4213 12.714 10.423 12.719 10.4246C14.1555 10.9107 14.2019 12.4291 14.2218 13.0836L14.222 13.0883C14.222 13.1036 14.2229 13.118 14.2237 13.1319C14.2245 13.1451 14.2253 13.1578 14.2253 13.1706Z" fill="#EDEDED"/>
</svg>
