<svg width="11" height="11" viewBox="0 0 11 11" fill="#FFDA58" xmlns="http://www.w3.org/2000/svg">
<path d="M5.22687 0.651367C5.24149 0.651367 5.25609 0.659916 5.26332 0.674311C5.26334 0.674337 5.26335 0.674364 5.26336 0.674391L6.73347 3.62965L6.79201 3.74733L6.92213 3.76582L10.187 4.22978C10.2055 4.23304 10.217 4.24454 10.2214 4.25799C10.2239 4.26572 10.2239 4.27283 10.2224 4.27875C10.2209 4.2844 10.2179 4.29011 10.2121 4.29548L10.212 4.2954L10.2066 4.3007L7.85061 6.61154L7.75677 6.70358L7.7794 6.83305L8.34474 10.0682L8.3473 10.0828L8.3496 10.0905C8.34961 10.0909 8.34961 10.0913 8.34961 10.0918C8.34961 10.1014 8.34583 10.1114 8.33739 10.1198C8.32894 10.1282 8.31897 10.132 8.30941 10.132C8.30487 10.132 8.29828 10.1311 8.28924 10.1268L5.36627 8.59982L5.24969 8.53891L5.13347 8.60049L2.21644 10.1461L2.21643 10.146L2.21301 10.1479C2.21013 10.1495 2.20819 10.1501 2.20675 10.1505C2.20525 10.1509 2.20259 10.1514 2.19806 10.1514C2.19062 10.1514 2.18267 10.1487 2.17684 10.1444L2.17686 10.1444L2.17355 10.142C2.16132 10.1333 2.15582 10.1196 2.15837 10.1052L2.15869 10.1033L2.70684 6.84874L2.72867 6.71915L2.6343 6.62769L0.263282 4.32976L0.263294 4.32974L0.261093 4.32766C0.251452 4.31854 0.247448 4.30328 0.251708 4.29023C0.256137 4.27667 0.267741 4.26509 0.286518 4.26194L3.55254 3.77634L3.68254 3.75701L3.74032 3.63896L5.19131 0.674648L5.19132 0.674626C5.19893 0.659076 5.213 0.651367 5.22687 0.651367Z" stroke="#FFDA58" stroke-width="0.5"/>
</svg>
